Coordinates
version=1
nRows=8
nColumns=33
inDegrees=yes

Units are S.I. units (second, meters, Newtons, ...)
Angles are in degrees.

endheader
time	ground_thorax_rot_x	ground_thorax_rot_y	ground_thorax_rot_z	ground_thorax_tx	ground_thorax_ty	ground_thorax_tz	clav_prot_r	clav_elev_r	scapula_abduction_r	scapula_elevation_r	scapula_upward_rot_r	scapula_winging_r	shoulder_elv_r	plane_of_elev_r	axial_rot_r	elbow_flexion_r	pro_sup_r	wrist_flex_r	wrist_dev_r	clav_prot_l	clav_elev_l	scapula_abduction_l	scapula_elevation_l	scapula_upward_rot_l	scapula_winging_l	shoulder_elv_l	plane_of_elev_l	axial_rot_l	elbow_flexion_l	pro_sup_l	wrist_flex_l	wrist_dev_l
      1.85000000	      9.26451806	     30.83920820	     26.85369974	     -0.04672059	      1.04148369	     -0.04118676	    -39.52697653	     25.67515514	    -45.00000000	     14.95511854	     45.00000000	    -24.56494131	     36.52808761	     79.51040779	     12.11317764	     73.64867957	     39.07264642	     26.21049244	    -22.20469267	     26.32615045	    -33.01578639	    -45.00000000	     11.49156482	    -26.15057017	      6.23148743	    134.02990917	     31.68019506	     61.71483993	     67.88011000	     56.43650995	    -15.69143121	    -24.99999983
      1.86000000	      9.44871726	     30.85601829	     26.90670010	     -0.04651438	      1.04153673	     -0.04093202	    -39.51692488	     25.68958289	    -45.00000000	     14.96696590	     45.00000000	    -24.55623232	     36.83090560	     80.33330691	     11.96221974	     72.43917401	     38.82315369	     26.16983267	    -22.05276853	     26.31280497	    -32.96606938	    -45.00000000	     11.50036661	    -26.01203958	      6.26204669	    134.03683068	     31.87246532	     62.28492473	     67.25793637	     56.41296125	    -15.62213758	    -24.99999983
      1.87000000	      9.37745189	     30.81469412	     26.96340017	     -0.04647939	      1.04188502	     -0.04100574	    -39.43577527	     25.80298458	    -45.00000000	     15.06182377	     45.00000000	    -24.48424756	     36.75834580	     80.62544325	     11.80303905	     71.72156275	     38.73899787	     26.04450559	    -21.95369034	     26.30333266	    -32.97202197	    -45.00000000	     11.62162748	    -25.70861489	      6.21612130	    134.14385512	     32.00275456	     62.41882094	     66.39098104	     56.47655122	    -15.42037273	    -24.99999983
      1.88000000	      9.60004041	     30.84215651	     26.98910335	     -0.04631153	      1.04188567	     -0.04076308	    -39.46234666	     25.76465080	    -45.00000000	     15.02976549	     45.00000000	    -24.50634124	     37.11464860	     81.54086752	     11.73659840	     70.39407407	     38.41271578	     25.98847446	    -21.79495893	     26.27864505	    -32.87137810	    -45.00000000	     11.59294086	    -25.55047067	      6.28983528	    134.12344290	     32.25827128	     63.06800531	     65.70181007	     56.41751597	    -15.37714589	    -24.99999983
      1.89000000	      9.51140068	     30.78025557	     27.04750710	     -0.04628442	      1.04218554	     -0.04083549	    -39.38264572	     25.87416616	    -45.00000000	     15.12161326	     45.00000000	    -24.43470293	     37.04164962	     81.83144349	     11.58765023	     69.64307012	     38.31008421	     25.85286529	    -21.69535493	     26.26273991	    -32.85522638	    -45.00000000	     11.69797787	    -25.23755833	      6.26145060	    134.23052063	     32.38327751	     63.19062720	     64.76242153	     56.48680051	    -15.16253779	    -24.99999983
      1.90000000	      9.71771666	     30.80422311	     27.09147224	     -0.04622083	      1.04217763	     -0.04061244	    -39.39784624	     25.85323903	    -45.00000000	     15.10387583	     45.00000000	    -24.44654147	     37.38847154	     82.73350700	     11.59585719	     68.25078870	     37.91893899	     25.76105898	    -21.54053805	     26.23032161	    -32.71533774	    -45.00000000	     11.63338165	    -25.08253797	      6.37266153	    134.19484690	     32.68372950	     63.85768702	     64.02365790	     56.41184022	    -15.12719198	    -24.99999983
      1.91000000	      9.64119529	     30.71476957	     27.12912184	     -0.04631435	      1.04249819	     -0.04074852	    -39.31653111	     25.96265706	    -45.00000000	     15.19590115	     45.00000000	    -24.37108032	     37.34924377	     83.05081502	     11.47832115	     67.41948154	     37.77617417	     25.61640704	    -21.43284043	     26.20732622	    -32.66823377	    -45.00000000	     11.71113338	    -24.76928186	      6.37549474	    134.32260348	     32.83417393	     63.97602203	     63.02409336	     56.48142788	    -14.89445359	    -24.99999983
      1.92000000	      9.84217007	     30.75351950	     27.18058181	     -0.04622756	      1.04244776	     -0.04056306	    -39.33170712	     25.94254414	    -45.00000000	     15.17852430	     45.00000000	    -24.38356989	     37.68175293	     83.94244206	     11.53827327	     65.96296123	     37.29548793	     25.47867283	    -21.27703937	     26.16882154	    -32.49245009	    -45.00000000	     11.60537296	    -24.63863389	      6.52049304	    134.30269206	     33.13917718	     64.65303803	     62.27171486	     56.38191196	    -14.80239404	    -24.99999983
